# xmcd
#
# Track frame offsets: 
#        150
#        31226
#        56636
#        83340
#        100392
#        126409
#        162449
#        192235
#        223955
#        248798
#        271038
#        300332
#
# Disc length: 4354 seconds
#
# Revision: 2
# Processed by: cddbd v1.5.2PL0 Copyright (c) Steve Scherf et al.
# Submitted via: ExactAudioCopy v1.0b4
#
DISCID=9f11000c
DTITLE=Jimmy Thackery And The Drivers - Wide Open
DYEAR=2014
DGENRE=Blues
TTITLE0=Change Your Tune
TTITLE1=Minor Step
TTITLE2=Coffee And Chicken
TTITLE3=King Of Livin' On My Own
TTITLE4=Hard Luck Man
TTITLE5=Shame, Shame, Shame
TTITLE6=You Brush Me Off
TTITLE7=Someone Who's Cryin' Tonight
TTITLE8=Keep My Heart From Breakin'
TTITLE9=Swingin' Breeze
TTITLE10=Run Like The Wind
TTITLE11=Pondok
EXTD=
EXTT0=
EXTT1=
EXTT2=
EXTT3=
EXTT4=
EXTT5=
EXTT6=
EXTT7=
EXTT8=
EXTT9=
EXTT10=
EXTT11=
PLAYORDER=
